<svg t="1636705394328" class="icon" viewBox="0 0 1024 1024" version="1.1" xmlns="http://www.w3.org/2000/svg" p-id="17857" width="200" height="200">
    <path d="M917.344 50.464h-491.84c-88.992 0-288.16-35.728-331.04 82.48-20.288 55.888 30.224 153.808 93.744 153.808h729.152l-24-24v594.752c0 14.944 1.072 57.232 0.24 60.704-11.632 47.264-59.184 36.464-93.696 36.464H170.112c-57.84 0-34.08-124.8-34.08-160.112V168v-3.808c0-30.96-48-30.96-48 0v590.8c0 63.008-14.192 143.744 6.416 204.512 19.84 58.496 114.8 43.152 160.064 43.152h605.76c76.112 0 81.104-82.432 81.104-135.536V513.312 262.736c0-13.088-10.928-24-24-24H192.8c-36.4 0-70.608-69.168-46.144-100.464 30.224-38.672 66.384-39.824 103.2-39.824H917.36c30.944 0.016 30.944-47.984-0.016-47.984z" p-id="17858"></path>
    <path d="M190.656 185.264H914.4c30.96 0 30.96-48 0-48H190.656c-30.96 0-30.96 48 0 48zM222.56 262.752h48v709.312h-48z" p-id="17859"></path>
</svg>