<svg t="1636704534949" class="icon" viewBox="0 0 1024 1024" version="1.1" xmlns="http://www.w3.org/2000/svg" p-id="16114" width="200" height="200">
    <path d="M95.744 1008.128c-17.408 0-31.744-13.824-32.256-31.744V49.152c0.512-18.432 15.36-33.28 34.304-33.28h829.44c8.704 0 17.408 3.584 23.552 10.24 6.144 6.656 9.728 14.848 9.728 24.064v925.696c0 3.584-0.512 7.168-2.048 11.776-4.608 12.288-16.384 19.968-30.208 19.968-4.096 0-8.192-0.512-11.776-2.048l-356.864-137.728c-14.848-5.632-31.232-8.704-47.104-8.704-16.384 0-32.256 3.072-47.104 8.704l-357.376 137.728H107.52c-3.072 1.536-7.168 2.56-10.752 2.56h-1.024z m44.544-941.056c-13.824 0-24.576 10.752-24.576 24.576v845.824L482.816 803.84c9.728-3.584 19.968-5.632 29.696-5.632 10.24 0 19.968 2.048 29.696 5.632l367.104 133.632V92.16c0-13.824-10.752-24.576-24.576-24.576H140.288z" p-id="16115"></path>
    <path d="M305.152 510.976c0-15.872 12.8-28.16 28.16-28.16h356.864c15.872 0 28.16 12.8 28.16 28.16 0 15.872-12.8 28.16-28.16 28.16H333.824c-15.872 0.512-28.672-12.288-28.672-28.16z m0-206.848c0-15.872 12.8-28.16 28.16-28.16h356.864c15.872 0 28.16 12.8 28.16 28.16 0 15.872-12.8 28.16-28.16 28.16H333.824c-15.872 0-28.672-12.288-28.672-28.16z" p-id="16116"></path>
</svg>