<svg t="1591015852591" width="270px" height="270px" class="icon" viewBox="0 0 270 270" version="1.1" xmlns="http://www.w3.org/2000/svg" p-id="1531" data-spm-anchor-id="a313x.7781069.0.i3" width="200" height="200"><path d="M466.192 128a64 64 0 0 1 53.7952 29.3312L583.5744 256H896c35.3456 0 64 28.6544 64 64v512c0 35.3456-28.6544 64-64 64H128c-35.3456 0-64-28.6544-64-64V192c0-35.3456 28.6544-64 64-64h338.192zM896 304H128c-8.8368 0-16 7.1632-16 16v512c0 8.8368 7.1632 16 16 16h768c8.8368 0 16-7.1632 16-16V320c0-8.8368-7.1632-16-16-16z m-429.808-128H128c-8.8368 0-16 7.1632-16 16v66.016A64.1184 64.1184 0 0 1 128 256h398.4704l-46.8304-72.6672a16 16 0 0 0-12.9408-7.3248l-0.5088-0.008z" fill="#333333" p-id="1532" data-spm-anchor-id="a313x.7781069.0.i4" class=""></path></svg>