<svg t="1591001555979" class="icon" viewBox="0 0 1024 1024" version="1.1" xmlns="http://www.w3.org/2000/svg" p-id="8133" width="200" height="200"><path d="M837.15584 60.08064c-7.90528 0.58368-8.73728 1.37984-8.7552 8.3968-0.02048 7.86944-0.09984 7.92576-12.27264 8.67072-18.1504 1.11616-19.81696 2.06592-21.25568 12.12416-0.7296 5.1072-0.97024 5.46304-3.84 5.71136-9.76384 0.83712-11.88352 2.78016-13.31968 12.20352-0.62208 4.08832-0.83712 4.30336-4.92544 4.92544-9.42336 1.43616-11.3664 3.55584-12.20352 13.31968-0.24832 2.86976-0.60416 3.1104-5.71136 3.84-8.91136 1.27488-10.56768 3.20768-11.64288 13.57568-0.26624 2.58816-0.80128 3.11296-3.38944 3.33568-9.77152 0.83712-11.8912 2.7776-13.32736 12.20352-0.62208 4.08832-0.83712 4.30336-4.92544 4.92544-9.42592 1.43616-11.3664 3.55584-12.20352 13.32736-0.22272 2.58816-0.74752 3.1232-3.33568 3.38944-10.368 1.0752-12.3008 2.73152-13.57568 11.64288-0.7296 5.1072-0.97024 5.46304-3.84 5.71136-9.76384 0.83712-11.88352 2.78016-13.31968 12.20352-0.62208 4.08832-0.83712 4.30336-4.92544 4.92544-9.42592 1.43616-11.3664 3.55584-12.20352 13.32736-0.22272 2.58816-0.74752 3.1232-3.33568 3.38944-10.368 1.0752-12.3008 2.73152-13.57568 11.64288-0.7296 5.1072-0.97024 5.46304-3.84 5.71136-9.76384 0.83712-11.88352 2.78016-13.31968 12.20352-0.62208 4.08832-0.83712 4.30336-4.92544 4.92544-9.42336 1.43616-11.3664 3.55584-12.20352 13.31968-0.24832 2.86976-0.60416 3.1104-5.71136 3.84-8.91136 1.27488-10.56768 3.20768-11.64288 13.57568-0.26624 2.58816-0.80128 3.11296-3.38944 3.33568-9.77152 0.83712-11.8912 2.7776-13.32736 12.20352-0.62208 4.08832-0.83712 4.30336-4.92544 4.92544-9.42336 1.43616-11.3664 3.55584-12.20352 13.31968-0.24832 2.86976-0.60416 3.1104-5.71136 3.84-8.91136 1.27488-10.56768 3.20768-11.64288 13.57568-0.26624 2.58816-0.80128 3.11296-3.38944 3.33568-9.77152 0.83712-11.8912 2.7776-13.32736 12.20352-0.62208 4.08832-0.83712 4.30336-4.92544 4.92544-9.42336 1.43616-11.3664 3.55584-12.20352 13.31968-0.24832 2.86976-0.60416 3.1104-5.71136 3.84-8.91136 1.27488-10.56768 3.20768-11.64288 13.57568-0.26624 2.58816-0.80128 3.11296-3.38944 3.33568-9.77152 0.83712-11.8912 2.7776-13.32736 12.20352-0.62208 4.08832-0.83712 4.30336-4.92544 4.92544-9.42336 1.43616-11.3664 3.55584-12.20352 13.31968-0.24832 2.86976-0.60416 3.1104-5.71136 3.84-8.91136 1.27488-10.56768 3.20768-11.64288 13.57568-0.26624 2.58816-0.80128 3.11296-3.38944 3.33568-9.77152 0.83712-11.8912 2.7776-13.32736 12.20352-0.62208 4.08832-0.83712 4.30336-4.92544 4.92544-9.42336 1.43616-11.3664 3.55584-12.20352 13.31968-0.24832 2.86976-0.60416 3.1104-5.71136 3.84-8.91136 1.27488-10.56768 3.20768-11.64288 13.57568-0.26624 2.58816-0.80128 3.11296-3.38944 3.33568-9.77152 0.83712-11.8912 2.7776-13.32736 12.20352-0.62208 4.08832-0.83712 4.30336-4.92544 4.92544-9.42336 1.43616-11.3664 3.55584-12.20352 13.31968-0.24832 2.86976-0.60416 3.1104-5.71136 3.84-8.91136 1.27488-10.56768 3.20768-11.64288 13.57568-0.26624 2.58816-0.80128 3.11296-3.38944 3.33568-9.77152 0.83712-11.8912 2.7776-13.32736 12.20352-0.62208 4.08832-0.83712 4.30336-4.92544 4.92544-9.42336 1.43616-11.3664 3.55584-12.20352 13.31968-0.24832 2.86976-0.60416 3.1104-5.71136 3.84-8.91136 1.27488-10.56768 3.20768-11.64288 13.57568-0.26624 2.58816-0.80128 3.11296-3.38944 3.33568-9.77152 0.83712-11.8912 2.7776-13.32736 12.20352-0.62208 4.08832-0.83712 4.30336-4.92544 4.92544-9.42336 1.43616-11.3664 3.55584-12.20352 13.31968-0.24832 2.86976-0.60416 3.1104-5.71136 3.84-8.91136 1.27488-10.56768 3.20768-11.64288 13.57568-0.26624 2.58816-0.80128 3.11296-3.38944 3.33568-9.77152 0.83712-11.8912 2.7776-13.32736 12.20352-0.62208 4.08832-0.83712 4.30336-4.92544 4.92544-9.42336 1.43616-11.3664 3.55584-12.20352 13.31968-0.24832 2.86976-0.60416 3.1104-5.71136 3.84-8.91136 1.27488-10.56768 3.20768-11.64288 13.57568-0.26624 2.58816-0.80128 3.11296-3.38944 3.33568-9.77152 0.83712-11.8912 2.7776-13.32736 12.20352-0.62208 4.08832-0.83712 4.30336-4.92544 4.92544-10.79296 1.64608-11.74784 3.24864-12.67456 21.26336l-0.61696 12.032h-6.8864c-8.56832 0-9.51296 0.97536-10.04288 10.36544l-0.3968 7.04256h-6.46912c-9.43104 0-9.68448 0.43008-9.68448 16.384 0 15.98464 0.23808 16.384 9.80224 16.384 7.46496 0 8.76288 1.50528 2.22976 2.58816-9.05472 1.50016-13.04832 9.99168-13.05344 27.75552l-0.00256 4.23168-6.8864 0.88832c-9.08544 1.17248-9.46176 1.95072-9.48224 19.55584-0.01792 15.4368 0.73728 14.33856-10.2144 14.85824-6.9504 0.33024-6.96832 0.38144-7.10656 19.42272l-0.1024 14.03648-7.92576 0.29952-7.9232 0.29952-0.8576 5.632c-1.38496 9.1008-0.34816 57.86368 1.27232 59.8144 1.1776 1.4208 5.34016 1.6256 32.93184 1.6256 36.23168 0 33.7024 0.75264 33.7024-10.01472v-6.0544l15.616-0.6912c18.17344-0.80384 18.176-0.80384 18.176-10.42944v-6.32064l15.02976-0.50944c17.97376-0.60928 18.76224-1.07776 18.76224-11.1488V929.792l7.424-0.03328c20.0576-0.0896 24.02816-1.76896 25.85856-10.9312l1.18528-5.93152 0.6656 7.09632c0.87296 9.33632 0.69888 9.23392 16.03584 9.62304 16.2432 0.41472 17.43872-0.2688 17.43872-9.95328 0-7.01184 0.33792-7.27808 9.23904-7.27808 7.0784 0 7.28832-0.2432 7.93088-9.20832l0.49152-6.88128 10.88256-0.62208c18.23744-1.03936 20.49792-2.27072 21.51168-11.71712L314.88 878.08l5.8752-0.63232c8.16128-0.87552 10.9952-4.31104 11.01568-13.3376 0.00512-2.51392 0.45824-2.78784 6.35392-3.82464 7.88992-1.39008 8.77056-2.27072 10.16064-10.16064 1.0368-5.89568 1.31072-6.3488 3.82464-6.35392 9.02656-0.02048 12.46208-2.8544 13.3376-11.01568L366.08 826.88l5.8752-0.63232c8.16128-0.87552 10.9952-4.31104 11.01568-13.3376 0.00512-2.51392 0.45824-2.78784 6.35392-3.82464 7.88992-1.39008 8.77056-2.27072 10.16064-10.16064 1.0368-5.89568 1.31072-6.3488 3.82464-6.35392 9.02656-0.02048 12.46208-2.8544 13.3376-11.01568L417.28 775.68l5.8752-0.63232c8.16128-0.87552 10.9952-4.31104 11.01568-13.3376 0.00512-2.51392 0.45824-2.78784 6.35392-3.82464 7.88992-1.39008 8.77056-2.27072 10.16064-10.16064 1.0368-5.89568 1.31072-6.3488 3.82464-6.35392 9.02656-0.02048 12.46208-2.8544 13.3376-11.01568L468.48 724.48l5.8752-0.63232c8.16128-0.87552 10.9952-4.31104 11.01568-13.3376 0.00512-2.51392 0.45824-2.78784 6.35392-3.82464 7.88992-1.39008 8.77056-2.27072 10.16064-10.16064 1.0368-5.89568 1.31072-6.3488 3.82464-6.35392 9.02656-0.02048 12.46208-2.8544 13.3376-11.01568L519.68 673.28l5.8752-0.63232c8.16128-0.87552 10.9952-4.31104 11.01568-13.3376 0.00512-2.51392 0.45824-2.78784 6.35392-3.82464 7.88992-1.39008 8.77056-2.27072 10.16064-10.16064 1.0368-5.89568 1.31072-6.3488 3.82464-6.35392 9.02656-0.02048 12.46208-2.8544 13.3376-11.01568L570.88 622.08l5.8752-0.63232c8.16128-0.87552 10.9952-4.31104 11.01568-13.3376 0.00512-2.51392 0.45824-2.78784 6.35392-3.82464 7.88992-1.39008 8.77056-2.27072 10.16064-10.16064 1.0368-5.89568 1.31072-6.3488 3.82464-6.35392 9.02656-0.02048 12.46208-2.8544 13.3376-11.01568L622.08 570.88l5.8752-0.63232c8.16128-0.87552 10.9952-4.31104 11.01568-13.3376 0.00512-2.51392 0.45824-2.78784 6.35392-3.82464 7.88992-1.39008 8.77056-2.27072 10.16064-10.16064 1.0368-5.89568 1.31072-6.3488 3.82464-6.35392 9.02656-0.02048 12.46208-2.8544 13.3376-11.01568L673.28 519.68l5.8752-0.63232c8.16128-0.87552 10.9952-4.31104 11.01568-13.3376 0.00512-2.51392 0.45824-2.78784 6.35392-3.82464 7.88992-1.39008 8.77056-2.27072 10.16064-10.16064 1.0368-5.89568 1.31072-6.3488 3.82464-6.35392 9.02656-0.02048 12.46208-2.8544 13.3376-11.01568L724.48 468.48l5.8752-0.63232c8.16128-0.87552 10.9952-4.31104 11.01568-13.3376 0.00512-2.51392 0.45824-2.78784 6.35392-3.82464 7.88992-1.39008 8.77056-2.27072 10.16064-10.16064 1.0368-5.89568 1.31072-6.3488 3.82464-6.35392 9.02656-0.02048 12.46208-2.8544 13.3376-11.01568L775.68 417.28l5.8752-0.63232c8.16128-0.87552 10.9952-4.31104 11.01568-13.3376 0.00512-2.51392 0.45824-2.78784 6.35392-3.82464 7.88992-1.39008 8.77056-2.27072 10.16064-10.16064 1.0368-5.89568 1.31072-6.3488 3.82464-6.35392 9.02656-0.02048 12.46208-2.8544 13.3376-11.01568L826.88 366.08l5.8752-0.63232c8.16128-0.87552 10.9952-4.31104 11.01568-13.3376 0.00512-2.51392 0.45824-2.78784 6.35392-3.82464 7.88992-1.39008 8.77056-2.27072 10.16064-10.16064 1.0368-5.89568 1.31072-6.3488 3.82464-6.35392 9.02656-0.02048 12.46208-2.8544 13.3376-11.01568L878.08 314.88l5.8752-0.63232c8.16128-0.87552 10.9952-4.31104 11.01568-13.3376 0.00512-2.51392 0.45824-2.78784 6.35392-3.82464 7.88992-1.39008 8.77056-2.27072 10.16064-10.16064 1.0368-5.89568 1.31072-6.3488 3.82464-6.35392 9.02656-0.02048 12.46208-2.8544 13.3376-11.01568L929.28 263.68l5.8752-0.63232c8.16128-0.87552 10.9952-4.31104 11.01568-13.3376 0.00512-2.51392 0.45824-2.78784 6.35392-3.82464 9.35168-1.64864 10.04544-3.04896 11.61728-23.42144l0.7296-9.472h6.4512c10.32704 0 9.8688 1.58208 9.45152-32.65536-0.4352-35.52768 0.256-33.39776-11.21792-34.59584l-5.97248-0.62464v-4.30848c0-9.21856-2.23232-11.74016-10.42176-11.77088-4.78208-0.01536-6.98368-2.21696-6.99904-6.99904-0.03072-8.18944-2.55232-10.42176-11.77088-10.42176h-4.30848l-0.62464-5.97248c-1.0368-9.93024-1.17248-10.06592-11.10272-11.10272l-5.97248-0.62464v-4.30848c0-9.21856-2.23232-11.74016-10.42176-11.77088-4.78208-0.01536-6.98368-2.21696-6.99904-6.99904-0.02304-6.12096-0.98816-8.16384-4.4416-9.40544-3.33056-1.19552-42.1248-2.17856-53.36576-1.35168" p-id="8134" fill="#555555"></path><path d="M837.15584 60.08064c-7.90528 0.58368-8.73728 1.37984-8.7552 8.3968-0.02048 7.86944-0.09984 7.92576-12.27264 8.67072-18.1504 1.11616-19.81696 2.06592-21.25568 12.12416-0.7296 5.1072-0.97024 5.46304-3.84 5.71136-9.76384 0.83712-11.88352 2.78016-13.31968 12.20352-0.62208 4.08832-0.83712 4.30336-4.92544 4.92544-9.42336 1.43616-11.3664 3.55584-12.20352 13.31968-0.24832 2.86976-0.60416 3.1104-5.71136 3.84-8.91136 1.27488-10.56768 3.20768-11.64288 13.57568-0.26624 2.58816-0.80128 3.11296-3.38944 3.33568-9.77152 0.83712-11.8912 2.7776-13.32736 12.20352-0.62208 4.08832-0.83712 4.30336-4.92544 4.92544-9.42592 1.43616-11.3664 3.55584-12.20352 13.32736-0.22272 2.58816-0.74752 3.1232-3.33568 3.38944-10.368 1.0752-12.3008 2.73152-13.57568 11.64288-0.7296 5.1072-0.97024 5.46304-3.84 5.71136-9.76384 0.83712-11.88352 2.78016-13.31968 12.20352-0.62208 4.08832-0.83712 4.30336-4.92544 4.92544-9.42592 1.43616-11.3664 3.55584-12.20352 13.32736-0.22272 2.58816-0.74752 3.1232-3.33568 3.38944-10.368 1.0752-12.3008 2.73152-13.57568 11.64288-0.7296 5.1072-0.97024 5.46304-3.84 5.71136-9.76384 0.83712-11.88352 2.78016-13.31968 12.20352-0.62208 4.08832-0.83712 4.30336-4.92544 4.92544-9.42336 1.43616-11.3664 3.55584-12.20352 13.31968-0.24832 2.86976-0.60416 3.1104-5.71136 3.84-8.91136 1.27488-10.56768 3.20768-11.64288 13.57568-0.26624 2.58816-0.80128 3.11296-3.38944 3.33568-9.77152 0.83712-11.8912 2.7776-13.32736 12.20352-0.62208 4.08832-0.83712 4.30336-4.92544 4.92544-9.42336 1.43616-11.3664 3.55584-12.20352 13.31968-0.24832 2.86976-0.60416 3.1104-5.71136 3.84-8.91136 1.27488-10.56768 3.20768-11.64288 13.57568-0.26624 2.58816-0.80128 3.11296-3.38944 3.33568-9.77152 0.83712-11.8912 2.7776-13.32736 12.20352-0.62208 4.08832-0.83712 4.30336-4.92544 4.92544-9.42336 1.43616-11.3664 3.55584-12.20352 13.31968-0.24832 2.86976-0.60416 3.1104-5.71136 3.84-8.91136 1.27488-10.56768 3.20768-11.64288 13.57568-0.26624 2.58816-0.80128 3.11296-3.38944 3.33568-9.77152 0.83712-11.8912 2.7776-13.32736 12.20352-0.62208 4.08832-0.83712 4.30336-4.92544 4.92544-9.42336 1.43616-11.3664 3.55584-12.20352 13.31968-0.24832 2.86976-0.60416 3.1104-5.71136 3.84-8.91136 1.27488-10.56768 3.20768-11.64288 13.57568-0.26624 2.58816-0.80128 3.11296-3.38944 3.33568-9.77152 0.83712-11.8912 2.7776-13.32736 12.20352-0.62208 4.08832-0.83712 4.30336-4.92544 4.92544-9.42336 1.43616-11.3664 3.55584-12.20352 13.31968-0.24832 2.86976-0.60416 3.1104-5.71136 3.84-8.91136 1.27488-10.56768 3.20768-11.64288 13.57568-0.26624 2.58816-0.80128 3.11296-3.38944 3.33568-9.77152 0.83712-11.8912 2.7776-13.32736 12.20352-0.62208 4.08832-0.83712 4.30336-4.92544 4.92544-9.42336 1.43616-11.3664 3.55584-12.20352 13.31968-0.24832 2.86976-0.60416 3.1104-5.71136 3.84-8.91136 1.27488-10.56768 3.20768-11.64288 13.57568-0.26624 2.58816-0.80128 3.11296-3.38944 3.33568-9.77152 0.83712-11.8912 2.7776-13.32736 12.20352-0.62208 4.08832-0.83712 4.30336-4.92544 4.92544-9.42336 1.43616-11.3664 3.55584-12.20352 13.31968-0.24832 2.86976-0.60416 3.1104-5.71136 3.84-8.91136 1.27488-10.56768 3.20768-11.64288 13.57568-0.26624 2.58816-0.80128 3.11296-3.38944 3.33568-9.77152 0.83712-11.8912 2.7776-13.32736 12.20352-0.62208 4.08832-0.83712 4.30336-4.92544 4.92544-9.42336 1.43616-11.3664 3.55584-12.20352 13.31968-0.24832 2.86976-0.60416 3.1104-5.71136 3.84-8.91136 1.27488-10.56768 3.20768-11.64288 13.57568-0.26624 2.58816-0.80128 3.11296-3.38944 3.33568-9.77152 0.83712-11.8912 2.7776-13.32736 12.20352-0.62208 4.08832-0.83712 4.30336-4.92544 4.92544-9.42336 1.43616-11.3664 3.55584-12.20352 13.31968-0.24832 2.86976-0.60416 3.1104-5.71136 3.84-8.91136 1.27488-10.56768 3.20768-11.64288 13.57568-0.26624 2.58816-0.80128 3.11296-3.38944 3.33568-9.77152 0.83712-11.8912 2.7776-13.32736 12.20352-0.62208 4.08832-0.83712 4.30336-4.92544 4.92544-10.79296 1.64608-11.74784 3.24864-12.67456 21.26336l-0.61696 12.032h-6.8864c-8.56832 0-9.51296 0.97536-10.04288 10.36544l-0.3968 7.04256h-6.46912c-9.43104 0-9.68448 0.43008-9.68448 16.384 0 15.98464 0.23808 16.384 9.80224 16.384 7.46496 0 8.76288 1.50528 2.22976 2.58816-9.05472 1.50016-13.04832 9.99168-13.05344 27.75552l-0.00256 4.23168-6.8864 0.88832c-9.08544 1.17248-9.46176 1.95072-9.48224 19.55584-0.01792 15.4368 0.73728 14.33856-10.2144 14.85824-6.9504 0.33024-6.96832 0.38144-7.10656 19.42272l-0.1024 14.03648-7.92576 0.29952-7.9232 0.29952-0.8576 5.632c-1.38496 9.1008-0.34816 57.86368 1.27232 59.8144 1.1776 1.4208 5.34016 1.6256 32.93184 1.6256 36.23168 0 33.7024 0.75264 33.7024-10.01472v-6.0544l15.616-0.6912c18.17344-0.80384 18.176-0.80384 18.176-10.42944v-6.32064l15.02976-0.50944c17.97376-0.60928 18.76224-1.07776 18.76224-11.1488V929.792l7.424-0.03328c20.0576-0.0896 24.02816-1.76896 25.85856-10.9312l1.18528-5.93152 0.6656 7.09632c0.87296 9.33632 0.69888 9.23392 16.03584 9.62304 16.2432 0.41472 17.43872-0.2688 17.43872-9.95328 0-7.01184 0.33792-7.27808 9.23904-7.27808 7.0784 0 7.28832-0.2432 7.93088-9.20832l0.49152-6.88128 10.88256-0.62208c18.23744-1.03936 20.49792-2.27072 21.51168-11.71712L314.88 878.08l5.8752-0.63232c8.16128-0.87552 10.9952-4.31104 11.01568-13.3376 0.00512-2.51392 0.45824-2.78784 6.35392-3.82464 7.88992-1.39008 8.77056-2.27072 10.16064-10.16064 1.0368-5.89568 1.31072-6.3488 3.82464-6.35392 9.02656-0.02048 12.46208-2.8544 13.3376-11.01568L366.08 826.88l5.8752-0.63232c8.16128-0.87552 10.9952-4.31104 11.01568-13.3376 0.00512-2.51392 0.45824-2.78784 6.35392-3.82464 7.88992-1.39008 8.77056-2.27072 10.16064-10.16064 1.0368-5.89568 1.31072-6.3488 3.82464-6.35392 9.02656-0.02048 12.46208-2.8544 13.3376-11.01568L417.28 775.68l5.8752-0.63232c8.16128-0.87552 10.9952-4.31104 11.01568-13.3376 0.00512-2.51392 0.45824-2.78784 6.35392-3.82464 7.88992-1.39008 8.77056-2.27072 10.16064-10.16064 1.0368-5.89568 1.31072-6.3488 3.82464-6.35392 9.02656-0.02048 12.46208-2.8544 13.3376-11.01568L468.48 724.48l5.8752-0.63232c8.16128-0.87552 10.9952-4.31104 11.01568-13.3376 0.00512-2.51392 0.45824-2.78784 6.35392-3.82464 7.88992-1.39008 8.77056-2.27072 10.16064-10.16064 1.0368-5.89568 1.31072-6.3488 3.82464-6.35392 9.02656-0.02048 12.46208-2.8544 13.3376-11.01568L519.68 673.28l5.8752-0.63232c8.16128-0.87552 10.9952-4.31104 11.01568-13.3376 0.00512-2.51392 0.45824-2.78784 6.35392-3.82464 7.88992-1.39008 8.77056-2.27072 10.16064-10.16064 1.0368-5.89568 1.31072-6.3488 3.82464-6.35392 9.02656-0.02048 12.46208-2.8544 13.3376-11.01568L570.88 622.08l5.8752-0.63232c8.16128-0.87552 10.9952-4.31104 11.01568-13.3376 0.00512-2.51392 0.45824-2.78784 6.35392-3.82464 7.88992-1.39008 8.77056-2.27072 10.16064-10.16064 1.0368-5.89568 1.31072-6.3488 3.82464-6.35392 9.02656-0.02048 12.46208-2.8544 13.3376-11.01568L622.08 570.88l5.8752-0.63232c8.16128-0.87552 10.9952-4.31104 11.01568-13.3376 0.00512-2.51392 0.45824-2.78784 6.35392-3.82464 7.88992-1.39008 8.77056-2.27072 10.16064-10.16064 1.0368-5.89568 1.31072-6.3488 3.82464-6.35392 9.02656-0.02048 12.46208-2.8544 13.3376-11.01568L673.28 519.68l5.8752-0.63232c8.16128-0.87552 10.9952-4.31104 11.01568-13.3376 0.00512-2.51392 0.45824-2.78784 6.35392-3.82464 7.88992-1.39008 8.77056-2.27072 10.16064-10.16064 1.0368-5.89568 1.31072-6.3488 3.82464-6.35392 9.02656-0.02048 12.46208-2.8544 13.3376-11.01568L724.48 468.48l5.8752-0.63232c8.16128-0.87552 10.9952-4.31104 11.01568-13.3376 0.00512-2.51392 0.45824-2.78784 6.35392-3.82464 7.88992-1.39008 8.77056-2.27072 10.16064-10.16064 1.0368-5.89568 1.31072-6.3488 3.82464-6.35392 9.02656-0.02048 12.46208-2.8544 13.3376-11.01568L775.68 417.28l5.8752-0.63232c8.16128-0.87552 10.9952-4.31104 11.01568-13.3376 0.00512-2.51392 0.45824-2.78784 6.35392-3.82464 7.88992-1.39008 8.77056-2.27072 10.16064-10.16064 1.0368-5.89568 1.31072-6.3488 3.82464-6.35392 9.02656-0.02048 12.46208-2.8544 13.3376-11.01568L826.88 366.08l5.8752-0.63232c8.16128-0.87552 10.9952-4.31104 11.01568-13.3376 0.00512-2.51392 0.45824-2.78784 6.35392-3.82464 7.88992-1.39008 8.77056-2.27072 10.16064-10.16064 1.0368-5.89568 1.31072-6.3488 3.82464-6.35392 9.02656-0.02048 12.46208-2.8544 13.3376-11.01568L878.08 314.88l5.8752-0.63232c8.16128-0.87552 10.9952-4.31104 11.01568-13.3376 0.00512-2.51392 0.45824-2.78784 6.35392-3.82464 7.88992-1.39008 8.77056-2.27072 10.16064-10.16064 1.0368-5.89568 1.31072-6.3488 3.82464-6.35392 9.02656-0.02048 12.46208-2.8544 13.3376-11.01568L929.28 263.68l5.8752-0.63232c8.16128-0.87552 10.9952-4.31104 11.01568-13.3376 0.00512-2.51392 0.45824-2.78784 6.35392-3.82464 9.35168-1.64864 10.04544-3.04896 11.61728-23.42144l0.7296-9.472h6.4512c10.32704 0 9.8688 1.58208 9.45152-32.65536-0.4352-35.52768 0.256-33.39776-11.21792-34.59584l-5.97248-0.62464v-4.30848c0-9.21856-2.23232-11.74016-10.42176-11.77088-4.78208-0.01536-6.98368-2.21696-6.99904-6.99904-0.03072-8.18944-2.55232-10.42176-11.77088-10.42176h-4.30848l-0.62464-5.97248c-1.0368-9.93024-1.17248-10.06592-11.10272-11.10272l-5.97248-0.62464v-4.30848c0-9.21856-2.23232-11.74016-10.42176-11.77088-4.78208-0.01536-6.98368-2.21696-6.99904-6.99904-0.02304-6.12096-0.98816-8.16384-4.4416-9.40544-3.33056-1.19552-42.1248-2.17856-53.36576-1.35168" p-id="8135" fill="#555555"></path></svg>